<svg version="1.1" xmlns="http://www.w3.org/2000/svg" style="display: block;" viewBox="0 0 2048 2048" width="1024" height="1024" preserveAspectRatio="none">
<path transform="translate(0,0)" fill="rgb(255,255,255)" d="M 0 0 L 2048 0 L 2048 2048 L 0 2048 L 0 0 z"/>
<path transform="translate(0,0)" fill="rgb(17,32,117)" d="M 998.753 418.463 C 986.383 410.19 976.429 400.643 977.25 384.041 C 976.501 381.043 981.506 363.681 984.84 363.027 C 996.341 360.769 1030.13 362.075 1040.51 362.536 C 1054.13 385.055 1047.92 406.268 1025.07 418.658 C 1026.09 453.528 1025.96 494.122 1025.39 529.065 C 1044.54 507.164 1064.01 485.545 1083.8 464.213 C 1093.62 453.545 1108.89 437.98 1117.45 427.055 C 1191.21 427.008 1266.63 426.116 1340.26 427.008 C 1285.6 491.677 1225.24 554.657 1170.04 618.752 C 1162.55 627.013 1154.9 636.064 1147.68 644.615 C 1130.19 661.625 1112.08 685.019 1095.34 703.309 C 1090.59 708.207 1076.22 723.486 1072.82 728.786 C 1040.93 764.739 1008.06 802.458 975.244 837.529 C 994.899 862.336 1019.58 889.012 1040.42 913.298 C 1053.87 928.962 1073.86 954.104 1087.71 968.031 C 1090.57 972.212 1106.12 989.96 1109.87 993.353 C 1167.06 1061.72 1228.23 1132.02 1286.7 1199.35 L 1348.5 1270.71 C 1357.19 1280.91 1370.21 1295.38 1377.95 1305.91 C 1297.88 1305.78 1216.37 1305.08 1136.4 1306.01 C 1097.4 1258.03 1054.72 1211.04 1014.87 1163.68 C 999.982 1145.98 982.071 1126.26 968.181 1108.14 C 935.848 1108.33 900 1109.51 867.793 1107.67 C 876.716 1118.22 893.02 1132.73 903.103 1143.24 C 932.313 1173.71 965.882 1204.48 994.086 1235.56 L 994.146 1293.81 C 1047.52 1319.14 1011.72 1384.74 968.102 1369.12 C 958.173 1365.57 950.094 1358.17 945.692 1348.59 C 941.245 1338.91 940.846 1327.86 944.585 1317.89 C 949.059 1305.78 956.957 1299.16 968.24 1294.03 C 967.731 1278.24 967.981 1261.47 967.974 1245.59 C 946.608 1223.66 924.705 1202.62 903.878 1180.18 C 903.265 1200.19 903.884 1223.64 903.91 1244.01 C 912.075 1248.46 917.625 1251.96 922.996 1260.12 C 928.956 1269.19 930.971 1280.29 928.578 1290.87 C 926.115 1301.77 919.19 1311.13 909.491 1316.68 C 900.216 1322.18 889.085 1323.63 878.711 1320.68 C 857.147 1314.34 845.007 1290.32 852.616 1269.24 C 857.65 1255.3 865.801 1249.53 878.392 1243.34 C 877.015 1217.61 878.162 1182.24 878.279 1155.8 C 862.044 1137.33 840.456 1116.33 823.003 1098.51 L 823.032 1305.86 L 635.122 1305.99 L 635.254 1143.95 L 515.925 1144.05 L 515.87 919.75 L 635.115 919.96 C 635.03 906.986 635.03 894.011 635.114 881.037 L 547.964 881.008 L 547.949 793.91 L 635.2 793.941 L 635.108 707.041 L 481.045 707.441 L 481.03 541.172 L 635.241 541.076 L 635.321 426.97 L 823.164 426.861 L 823.057 621.258 C 822.708 633.943 822.738 646.636 823.145 659.32 C 822.242 688.953 823.035 722.835 823.012 752.814 C 838.687 736.865 856.078 716.538 871.204 699.686 L 952.182 609.254 C 966.593 593.01 983.806 572.517 998.922 557.344 L 998.731 469.944 C 998.676 453.853 997.957 434.24 998.753 418.463 z"/>
<path transform="translate(0,0)" fill="rgb(252,223,4)" d="M 978.618 964.208 C 990.143 963.603 999.149 964.733 1008.31 973 C 1015.33 979.383 1019.45 988.344 1019.74 997.827 C 1020.03 1007.41 1016.32 1016.68 1009.5 1023.42 C 991.043 1041.46 964.406 1033.82 952.598 1011.84 C 931.595 1011.85 907.766 1011.36 886.977 1012.04 C 902.911 1031.46 932.478 1063.09 945.571 1081.54 C 915.452 1081.75 885.288 1080.67 855.157 1081.11 C 850.874 1081.17 846.213 1080.92 841.98 1081.33 C 834.901 1075.37 833.406 1067.67 823.01 1067.7 C 797.205 1068.51 769.117 1067.95 743.083 1068.03 L 743.101 1094.58 C 743.954 1129.41 743.046 1167.92 743.144 1203.05 C 749.389 1206.91 754.367 1210.83 758.484 1216.99 C 763.544 1224.58 765.349 1233.88 763.497 1242.82 C 761.643 1252.07 756.035 1260.15 748.009 1265.11 C 739.787 1270.13 730.42 1272.37 720.968 1269.81 C 711.705 1267.22 703.913 1260.93 699.41 1252.43 C 694.86 1244.13 693.871 1234.33 696.671 1225.29 C 700.339 1213.58 707.507 1207.81 717.801 1202.58 C 716.059 1132.19 716.916 1056.24 717.222 985.592 C 752.056 985.122 787.599 985.984 822.328 985.034 L 863.981 985.432 C 870.411 986.079 886.579 985.51 893.636 985.467 C 913.132 985.213 932.631 985.321 952.123 985.791 L 956.528 977.742 C 964.381 969.657 968.41 967.695 978.618 964.208 z"/>
<path transform="translate(0,0)" fill="rgb(255,255,255)" d="M 823.095 1012.05 C 844.386 1012.58 865.687 1012.58 886.977 1012.04 C 902.911 1031.46 932.478 1063.09 945.571 1081.54 C 915.452 1081.75 885.288 1080.67 855.157 1081.11 C 850.874 1081.17 846.213 1080.92 841.98 1081.33 C 834.901 1075.37 833.406 1067.67 823.01 1067.7 L 823.095 1012.05 z"/>
<path transform="translate(0,0)" fill="rgb(17,32,117)" d="M 743.128 1012.05 L 823.095 1012.05 L 823.01 1067.7 C 797.205 1068.51 769.117 1067.95 743.083 1068.03 C 743.475 1049.78 743.136 1030.39 743.128 1012.05 z"/>
<path transform="translate(0,0)" fill="rgb(100,100,100)" d="M 635.115 919.96 C 635.165 992.506 636.959 1071.91 635.254 1143.95 L 515.925 1144.05 L 515.87 919.75 L 635.115 919.96 z"/>
<path transform="translate(0,0)" fill="rgb(160,159,159)" d="M 481.03 541.172 L 635.241 541.076 L 635.108 707.041 L 481.045 707.441 L 481.03 541.172 z"/>
<path transform="translate(0,0)" fill="rgb(38,165,241)" d="M 823.01 1067.7 C 833.406 1067.67 834.901 1075.37 841.98 1081.33 C 850.131 1090.54 858.747 1099.33 867.793 1107.67 C 876.716 1118.22 893.02 1132.73 903.103 1143.24 C 932.313 1173.71 965.882 1204.48 994.086 1235.56 L 994.146 1293.81 C 1047.52 1319.14 1011.72 1384.74 968.102 1369.12 C 958.173 1365.57 950.094 1358.17 945.692 1348.59 C 941.245 1338.91 940.846 1327.86 944.585 1317.89 C 949.059 1305.78 956.957 1299.16 968.24 1294.03 C 967.731 1278.24 967.981 1261.47 967.974 1245.59 C 946.608 1223.66 924.705 1202.62 903.878 1180.18 C 903.265 1200.19 903.884 1223.64 903.91 1244.01 C 912.075 1248.46 917.625 1251.96 922.996 1260.12 C 928.956 1269.19 930.971 1280.29 928.578 1290.87 C 926.115 1301.77 919.19 1311.13 909.491 1316.68 C 900.216 1322.18 889.085 1323.63 878.711 1320.68 C 857.147 1314.34 845.007 1290.32 852.616 1269.24 C 857.65 1255.3 865.801 1249.53 878.392 1243.34 C 877.015 1217.61 878.162 1182.24 878.279 1155.8 C 862.044 1137.33 840.456 1116.33 823.003 1098.51 L 821.102 1095.97 C 816.448 1093.4 753.144 1094.6 743.101 1094.58 L 743.083 1068.03 C 769.117 1067.95 797.205 1068.51 823.01 1067.7 z"/>
<path transform="translate(0,0)" fill="rgb(255,255,255)" d="M 885.762 1266.32 C 894.225 1263.88 903.057 1268.78 905.475 1277.25 C 907.892 1285.71 902.977 1294.54 894.504 1296.94 C 886.056 1299.33 877.266 1294.43 874.855 1285.99 C 872.445 1277.55 877.324 1268.74 885.762 1266.32 z"/>
<path transform="translate(0,0)" fill="rgb(255,255,255)" d="M 981.148 1315.64 C 989.624 1315.53 996.653 1322.17 997.018 1330.64 C 997.383 1339.11 990.952 1346.33 982.499 1346.95 C 976.8 1347.37 971.325 1344.65 968.209 1339.86 C 965.093 1335.07 964.83 1328.97 967.522 1323.93 C 970.214 1318.89 975.434 1315.71 981.148 1315.64 z"/>
<path transform="translate(0,0)" fill="rgb(252,223,4)" d="M 945.571 1081.54 C 965.828 1082.8 996.581 1081.48 1017.72 1081.41 C 1051.66 1116.2 1086.54 1151.4 1119.95 1186.62 C 1136.92 1186.48 1153.89 1186.49 1170.86 1186.66 C 1187.84 1155.21 1228.92 1159.64 1237.5 1192.55 C 1239.74 1201.19 1238.37 1210.36 1233.71 1217.97 C 1228.6 1226.25 1220.37 1232.12 1210.87 1234.22 C 1201.55 1236.3 1191.78 1234.46 1183.85 1229.14 C 1177.19 1224.72 1173.59 1219.5 1169.73 1212.68 C 1149.31 1212.46 1128.89 1212.56 1108.48 1212.98 L 1040.45 1142.44 C 1029.86 1131.54 1017.56 1118.24 1006.72 1108.05 C 994.652 1108.07 980.028 1107.68 968.181 1108.14 C 935.848 1108.33 900 1109.51 867.793 1107.67 C 858.747 1099.33 850.131 1090.54 841.98 1081.33 C 846.213 1080.92 850.874 1081.17 855.157 1081.11 C 885.288 1080.67 915.452 1081.75 945.571 1081.54 z"/>
<path transform="translate(0,0)" fill="rgb(160,159,159)" d="M 635.2 793.941 C 646.13 794.179 657.064 794.231 667.996 794.1 L 668.292 880.786 C 657.893 880.86 645.335 880.613 635.114 881.037 L 547.964 881.008 L 547.949 793.91 L 635.2 793.941 z"/>
<path transform="translate(0,0)" fill="rgb(252,223,4)" d="M 998.753 418.463 C 986.383 410.19 976.429 400.643 977.25 384.041 C 976.501 381.043 981.506 363.681 984.84 363.027 C 996.341 360.769 1030.13 362.075 1040.51 362.536 C 1054.13 385.055 1047.92 406.268 1025.07 418.658 C 1026.09 453.528 1025.96 494.122 1025.39 529.065 C 1024.7 540.612 1025.05 553.799 1025.1 565.48 C 1025.15 574.219 1025.05 583.363 1025.26 592.062 C 1026.01 619.508 1025.56 649.301 1025.68 676.942 L 998.81 676.994 C 999.056 637.111 999.093 597.227 998.922 557.344 L 998.731 469.944 C 998.676 453.853 997.957 434.24 998.753 418.463 z"/>
<path transform="translate(0,0)" fill="rgb(38,165,241)" d="M 717.298 861.169 L 743.479 861.196 L 743.595 885.402 L 903.23 885.683 C 926.722 911.604 954.121 938.936 978.618 964.208 C 968.41 967.695 964.381 969.657 956.528 977.742 C 937.665 961.021 910.15 931.03 892.292 912.152 C 834.234 912.702 775.325 912.099 717.198 912.035 C 717.4 895.152 717.283 878.07 717.298 861.169 z"/>
<path transform="translate(0,0)" fill="rgb(252,223,4)" d="M 1138.55 524.944 C 1131.2 504.35 1138.38 484.23 1160.42 477.73 C 1169.64 474.985 1179.59 476.168 1187.92 480.998 C 1220.42 499.912 1201.04 557.05 1156.7 542.611 C 1148.06 537.985 1143.45 533.103 1138.55 524.944 z"/>
<path transform="translate(0,0)" fill="rgb(38,165,241)" d="M 1138.55 524.944 C 1143.45 533.103 1148.06 537.985 1156.7 542.611 C 1140 558.755 1123.64 575.242 1107.63 592.062 C 1080.47 592.057 1052.33 591.651 1025.26 592.062 C 1025.05 583.363 1025.15 574.219 1025.1 565.48 C 1047.61 566.28 1074.25 565.59 1097.02 565.537 C 1109.17 553.106 1125.36 535.853 1138.55 524.944 z"/>
<path transform="translate(0,0)" fill="rgb(255,255,255)" d="M 843.449 961.524 C 849.947 968.686 858.401 977.709 863.981 985.432 L 822.328 985.034 C 829.002 976.637 836.734 970.212 843.449 961.524 z"/>
<path transform="translate(0,0)" fill="rgb(38,165,241)" d="M 718.143 529.791 C 725.851 532.572 734.296 532.529 741.975 529.668 C 743.313 593.747 741.936 658.48 742.588 722.596 C 742.858 749.15 741.943 779.445 743.132 805.669 C 777.823 805.626 817.831 806.648 852.16 805.617 C 861.236 796.488 888.574 767.949 897.635 761.316 C 901.539 768.864 907.839 774.902 915.546 778.482 C 897.799 796.059 880.386 813.971 863.317 832.209 L 717.863 832.021 L 717.636 624.702 L 717.37 566.847 C 717.317 557.116 716.876 538.889 718.143 529.791 z"/>
<path transform="translate(0,0)" fill="rgb(160,159,159)" d="M 897.635 761.316 C 889.018 744.655 893.715 724.207 908.737 712.975 C 923.76 701.744 944.702 703.025 958.244 716.003 C 971.785 728.982 973.955 749.85 963.372 765.337 C 952.788 780.823 932.558 786.383 915.546 778.482 C 907.839 774.902 901.539 768.864 897.635 761.316 z"/>
<path transform="translate(0,0)" fill="rgb(255,255,255)" d="M 927.568 728.478 C 935.627 726.401 943.855 731.201 946.014 739.238 C 948.174 747.275 943.459 755.552 935.444 757.794 C 930.186 759.265 924.543 757.798 920.666 753.953 C 916.79 750.108 915.277 744.478 916.705 739.208 C 918.132 733.937 922.28 729.84 927.568 728.478 z"/>
<path transform="translate(0,0)" fill="rgb(252,223,4)" d="M 718.143 529.791 C 702.358 524.095 692.933 507.896 695.782 491.358 C 698.63 474.82 712.932 462.708 729.713 462.621 C 746.494 462.535 760.92 474.499 763.939 491.006 C 766.958 507.514 757.701 523.809 741.975 529.668 C 734.296 532.529 725.851 532.572 718.143 529.791 z"/>
<path transform="translate(0,0)" fill="rgb(254,0,0)" d="M 1111.61 793.975 L 1565.43 794.068 C 1565.32 813.857 1566.11 835.367 1565.82 854.551 C 1566.35 866.479 1565.94 881.606 1565.96 893.779 C 1511.85 893.316 1457.75 893.216 1403.65 893.478 L 1111.69 893.455 L 1111.55 843.89 L 1111.61 793.975 z"/>
<path transform="translate(0,0)" fill="rgb(254,88,88)" d="M 1111.61 793.975 L 1565.43 794.068 C 1565.32 813.857 1566.11 835.367 1565.82 854.551 C 1565.03 850.557 1565.97 848.771 1563.66 844.887 C 1560.09 842.881 1507.83 843.683 1498.67 843.677 L 1384.01 843.513 C 1293.19 843.173 1202.37 843.298 1111.55 843.89 L 1111.61 793.975 z"/>
<path transform="translate(0,0)" fill="rgb(17,32,117)" d="M 1297 1440.96 L 1413.32 1440.88 C 1413.19 1450.2 1413.38 1459.82 1413.43 1469.16 C 1391.57 1469.08 1348.59 1467.73 1327.87 1469.57 C 1327.89 1478.25 1327.85 1486.94 1327.75 1495.62 C 1353.57 1494.87 1381.17 1495.42 1407.14 1495.57 L 1406.99 1522.87 C 1389.13 1522.25 1368.56 1522.84 1350.5 1522.94 L 1327.82 1523.02 L 1327.85 1550.5 C 1356.49 1549.93 1386.24 1550.23 1414.97 1550.12 L 1414.98 1578.98 L 1296.97 1578.97 L 1297 1440.96 z"/>
<path transform="translate(0,0)" fill="rgb(17,32,117)" d="M 776.331 1441 L 891.853 1440.91 L 891.8 1469.14 L 806.738 1469.25 L 806.893 1495.46 C 833.248 1495.4 859.602 1495.5 885.955 1495.73 L 885.916 1522.99 L 826.686 1523.01 L 806.955 1523.09 L 806.931 1550.43 L 893.15 1550.34 L 893.155 1579 L 776.392 1578.85 L 776.331 1441 z"/>
<path transform="translate(0,0)" fill="rgb(17,32,117)" d="M 968.894 1437.41 C 992.048 1435.9 1020.8 1439.58 1033.28 1462.08 C 1037.22 1469.2 1037.95 1475.14 1039.26 1483.01 L 1008.45 1483.02 C 1002.65 1462.25 983.588 1464.31 966.281 1465.2 C 946.732 1466.19 939.644 1486.13 957.793 1491.6 C 980.596 1498.46 1010.45 1494.44 1030.67 1510.29 C 1045.53 1521.93 1045.59 1550 1033.26 1563.6 C 1019.31 1578.6 997.927 1581.65 978.739 1582.23 C 943.25 1582.29 917.931 1574.44 911.807 1535.28 C 923.314 1535.68 931.437 1535.46 942.856 1534.89 C 949.07 1555.84 966.978 1555.25 985.503 1554.59 C 995.159 1554.24 1012.93 1550.19 1010.78 1536.9 C 1009.63 1530.38 1002.02 1527.46 996.328 1526.01 C 968.794 1518.78 920.274 1524.37 915.14 1486.53 C 913.052 1471.13 920.399 1454.86 933.406 1446.7 C 944.006 1440.05 956.576 1438.48 968.894 1437.41 z"/>
<path transform="translate(0,0)" fill="rgb(17,32,117)" d="M 1166.67 1441.12 L 1197.03 1441.05 C 1196.9 1458.44 1199.09 1570.26 1196.45 1578.27 L 1194.25 1578.89 L 1166.06 1578.98 L 1166.41 1523.21 C 1143.61 1523.14 1120.82 1523.21 1098.03 1523.4 C 1098.04 1541.91 1098.14 1560.41 1098.34 1578.92 L 1067.42 1578.91 L 1067.54 1441.09 L 1097.98 1441.07 L 1097.98 1494.39 C 1120.89 1494.09 1143.8 1494.19 1166.71 1494.67 L 1166.67 1441.12 z"/>
<path transform="translate(0,0)" fill="rgb(38,165,241)" d="M 879.966 470.42 C 858.131 458.936 848.681 434.287 861.623 412.412 C 867.18 403.039 876.392 396.405 887.043 394.104 C 897.574 391.805 908.588 393.785 917.658 399.609 C 935.81 411.275 941.579 437.863 928.749 455.447 C 922.084 464.583 915.371 468.39 905.166 472.423 L 905.932 576.862 C 881.098 600.073 857.885 624.714 833.845 648.722 C 830.377 652.185 826.781 656.102 823.145 659.32 C 822.738 646.636 822.708 633.943 823.057 621.258 C 842.299 602.767 860.739 583.455 879.86 564.89 C 879.163 537.722 878.799 497.525 879.966 470.42 z"/>
<path transform="translate(0,0)" fill="rgb(255,255,255)" d="M 892.445 417.572 C 900.758 415.963 908.886 421.11 910.985 429.312 C 913.085 437.515 908.431 445.934 900.367 448.517 C 894.707 450.33 888.509 448.857 884.27 444.691 C 880.031 440.525 878.451 434.353 880.167 428.662 C 881.882 422.972 886.61 418.701 892.445 417.572 z"/>
<path transform="translate(0,0)" fill="rgb(100,100,100)" d="M 1376.63 594.588 C 1387.83 596.086 1419.02 595.192 1431.01 595.1 L 1431.06 620.231 C 1424.18 620.296 1391.7 619.96 1387.46 620.679 C 1352.43 657.481 1316.02 692.591 1280.95 729.015 L 1072.82 728.786 C 1076.22 723.486 1090.59 708.207 1095.34 703.309 L 1270.26 703.387 C 1305.33 666.766 1341.42 631.276 1376.63 594.588 z"/>
<path transform="translate(0,0)" fill="rgb(17,32,117)" d="M 711.412 1440.99 C 724.622 1441.3 738.932 1440.99 752.227 1440.94 C 734.357 1457.31 711.601 1483.02 693.507 1500.9 C 706.162 1515.99 718.721 1531.97 731.228 1547.3 C 738.435 1556.81 749.727 1569.47 757.633 1578.94 L 717.425 1579.01 C 708.298 1565.84 681.953 1534.17 671.492 1521.69 C 665.163 1528.68 658.935 1535.76 652.809 1542.93 L 652.869 1578.73 L 622.279 1578.78 L 622.805 1440.99 L 652.987 1440.99 L 653.193 1501.41 C 671.01 1481.58 692.569 1461.55 711.412 1440.99 z"/>
<path transform="translate(0,0)" fill="rgb(100,100,100)" d="M 1087.71 968.031 C 1159.06 967.54 1230.41 967.51 1301.76 967.942 L 1395.2 1062.62 C 1401.9 1063.55 1413.96 1063.11 1421.12 1063.07 C 1421.08 1071.04 1421.28 1080.31 1420.99 1088.17 C 1408.75 1087.9 1395.74 1088.13 1383.44 1088.17 C 1354.94 1056.97 1320.74 1024.09 1290.82 993.539 L 1109.87 993.353 C 1106.12 989.96 1090.57 972.212 1087.71 968.031 z"/>
<path transform="translate(0,0)" fill="rgb(160,159,159)" d="M 1431.21 563.461 L 1513.81 563.681 L 1513.79 649.834 L 1431.58 650.008 L 1431.09 621.081 C 1419.58 621.126 1398.13 621.764 1387.46 620.679 C 1391.7 619.96 1424.18 620.296 1431.06 620.231 L 1431.01 595.1 C 1419.02 595.192 1387.83 596.086 1376.63 594.588 C 1385.33 593.3 1419.02 594.522 1431.08 594.153 L 1431.21 563.461 z"/>
<path transform="translate(0,0)" fill="rgb(255,255,255)" d="M 1465.79 592.628 C 1470.89 590.634 1476.66 591.537 1480.9 594.992 C 1485.15 598.447 1487.2 603.918 1486.28 609.312 C 1485.36 614.706 1481.61 619.187 1476.46 621.041 C 1468.65 623.854 1460.03 619.87 1457.11 612.099 C 1454.19 604.328 1458.06 595.653 1465.79 592.628 z"/>
<path transform="translate(0,0)" fill="rgb(160,159,159)" d="M 1421.07 1031.92 L 1504 1032.04 L 1504.04 1117.91 L 1421.55 1118.05 C 1421.38 1108.32 1421.41 1097.83 1420.99 1088.17 C 1421.28 1080.31 1421.08 1071.04 1421.12 1063.07 C 1413.96 1063.11 1401.9 1063.55 1395.2 1062.62 C 1403.03 1061.66 1413.12 1062.02 1421.18 1062.06 L 1421.07 1031.92 z"/>
<path transform="translate(0,0)" fill="rgb(255,255,255)" d="M 1456.17 1060.69 C 1461.3 1058.87 1467.01 1059.97 1471.1 1063.57 C 1475.18 1067.17 1476.98 1072.7 1475.81 1078.02 C 1474.63 1083.33 1470.67 1087.59 1465.45 1089.13 C 1457.68 1091.44 1449.48 1087.13 1446.97 1079.43 C 1444.46 1071.72 1448.54 1063.42 1456.17 1060.69 z"/>
<path transform="translate(0,0)" fill="rgb(100,100,100)" d="M 1279.46 566.812 C 1272.67 549.164 1279.59 529.195 1295.84 519.526 C 1312.09 509.858 1332.94 513.303 1345.21 527.685 C 1357.49 542.067 1357.61 563.2 1345.51 577.727 C 1333.41 592.253 1312.6 595.946 1296.24 586.472 C 1288.56 582.028 1282.64 575.09 1279.46 566.812 z"/>
<path transform="translate(0,0)" fill="rgb(255,255,255)" d="M 1313.58 537.639 C 1321.99 536.499 1329.71 542.418 1330.8 550.828 C 1331.88 559.238 1325.91 566.923 1317.49 567.951 C 1309.15 568.969 1301.56 563.066 1300.48 554.735 C 1299.41 546.404 1305.26 538.768 1313.58 537.639 z"/>
<path transform="translate(0,0)" fill="rgb(17,32,117)" d="M 1232.01 1441.19 C 1242 1441.3 1252.28 1441.12 1262.29 1441.06 L 1262.29 1578.93 L 1231.83 1578.92 L 1232.01 1441.19 z"/>
<path transform="translate(0,0)" fill="rgb(160,159,159)" d="M 1279.46 566.812 C 1282.64 575.09 1288.56 582.028 1296.24 586.472 C 1279.48 605.112 1257.21 626.599 1239.34 644.842 C 1211.75 644.913 1174.9 646.012 1147.68 644.615 C 1154.9 636.064 1162.55 627.013 1170.04 618.752 C 1177.6 620.376 1217.15 619.472 1228.03 619.577 C 1244.73 601.6 1262.73 584.885 1279.46 566.812 z"/>
<path transform="translate(0,0)" fill="rgb(17,32,117)" d="M 1093.81 1620 C 1112.13 1616.04 1130.17 1627.78 1133.97 1646.15 C 1137.76 1664.51 1125.85 1682.44 1107.46 1686.07 C 1089.3 1689.65 1071.64 1677.92 1067.9 1659.8 C 1064.15 1641.67 1075.71 1623.91 1093.81 1620 z"/>
<path transform="translate(0,0)" fill="rgb(255,255,255)" d="M 1095.14 1626.18 C 1129.65 1623.46 1137.42 1666.62 1107.28 1679.32 C 1073.73 1684.57 1063.54 1639.52 1095.14 1626.18 z"/>
<path transform="translate(0,0)" fill="rgb(17,32,117)" d="M 992.067 1620.32 C 997.073 1620.59 1009.07 1620.85 1014.81 1620.34 C 1036.39 1618.41 1054.92 1629.26 1041.83 1652.29 C 1038.69 1657.81 1033.12 1658.99 1026.75 1660.21 C 1034.02 1667.86 1041.37 1676.37 1048.44 1684.28 L 1047.68 1685.39 L 1041.2 1686.3 C 1036.29 1684.46 1020.79 1665.23 1016.45 1660.13 C 1011.01 1660.1 1005.26 1660.43 999.796 1660.65 C 999.919 1666.3 1000.83 1680.62 998.57 1685.38 C 994.963 1685.36 995.181 1685.94 992.577 1684.28 C 990.93 1670.01 992 1636.02 992.067 1620.32 z"/>
<path transform="translate(0,0)" fill="rgb(255,255,255)" d="M 999.422 1627.83 C 1013.26 1627.47 1051.77 1624.01 1033.84 1650.61 C 1024.98 1654.7 1009.66 1653.37 999.506 1653.19 L 999.422 1627.83 z"/>
<path transform="translate(0,0)" fill="rgb(17,32,117)" d="M 1159.42 1620.1 C 1161.11 1620.03 1167.1 1619.71 1168.05 1620.91 C 1181.42 1637.65 1194.27 1656.2 1207.04 1673.39 C 1207.16 1656.87 1207.32 1640.01 1207.12 1623.46 C 1207.09 1621.52 1207.15 1622.09 1208.85 1620.62 C 1212.98 1620.31 1211.56 1619.64 1214.38 1621.29 C 1215.95 1629.39 1215.13 1674.65 1215.11 1685.75 C 1212.29 1685.7 1210.18 1685.46 1207.41 1685.15 C 1201.27 1681.05 1173.14 1640.27 1167.02 1631.73 C 1167.25 1646.46 1167.59 1669.24 1166.69 1683.58 C 1164.93 1686.22 1166.08 1685.38 1163.36 1686.44 L 1161.6 1684.87 C 1157.58 1674.57 1159.26 1633.81 1159.42 1620.1 z"/>
<path transform="translate(0,0)" fill="rgb(17,32,117)" d="M 1381.8 1619.1 C 1393.45 1618.33 1417.37 1620.49 1414.8 1637.59 C 1407.79 1639.79 1397.69 1622.85 1386.78 1625.46 C 1378.56 1627.44 1370.62 1629.4 1371.58 1639.54 C 1374.54 1645.35 1384.59 1648.15 1390.5 1648.44 C 1423.05 1650.04 1431.31 1679.3 1395.16 1686.95 C 1388.01 1687.18 1381.77 1686.67 1374.97 1684.18 C 1368.55 1681.83 1360.01 1673.87 1362.83 1666.5 L 1365.01 1666.01 C 1370.13 1667.28 1370.46 1668.96 1374.05 1672.91 C 1383.97 1683.83 1399.04 1682.92 1408.76 1672.28 C 1410.74 1670.1 1410.56 1668.96 1410.43 1666.27 C 1404.19 1655.32 1384.74 1656.93 1374.32 1651.81 C 1353.56 1641.61 1362.82 1624.11 1381.8 1619.1 z"/>
<path transform="translate(0,0)" fill="rgb(17,32,117)" d="M 622.344 1620.34 C 638.095 1621.31 653.625 1619.75 669.098 1621.18 C 670.594 1621.32 670.144 1621.47 671.421 1623.17 C 671.277 1625.73 671.713 1624.58 670.086 1626.61 C 665.336 1628.92 637.261 1627.93 629.756 1627.89 L 629.839 1648.98 C 639.325 1649.05 660.511 1647.5 668.355 1649.9 C 669.066 1653.13 669.202 1651.62 668.122 1654.6 C 662.843 1658.38 645.77 1656.63 638.25 1656.49 C 633.472 1656.41 633.418 1655.89 630.697 1658.34 C 628.912 1663.92 629.957 1671.82 630.033 1677.96 C 637.937 1677.85 666.691 1676.32 671.565 1679.54 C 672.947 1682.46 673.027 1681.13 672.139 1683.65 C 668.017 1686.03 629.124 1685.13 622.047 1685.15 C 622.364 1663.55 622.463 1641.94 622.344 1620.34 z"/>
<path transform="translate(0,0)" fill="rgb(17,32,117)" d="M 766.082 1620.58 C 774.801 1620.52 808.817 1618.98 814.385 1622.88 C 814.708 1626.16 815.18 1624.82 813.838 1627.29 C 801.364 1627.98 786.637 1627.74 773.956 1627.8 L 774.002 1648.92 C 784.453 1648.84 801.905 1648.09 811.444 1649.61 L 812.302 1650.88 C 812.044 1652.99 812.434 1653.78 811.111 1654.84 C 807.006 1658.13 790.087 1656.61 784.395 1656.5 C 777.454 1656.09 772.973 1655.63 773.562 1664.84 C 773.84 1669.19 773.941 1673.64 774.012 1678 C 787.482 1677.69 800.957 1677.6 814.431 1677.73 C 817.591 1679.52 816.407 1678.22 817.594 1682.21 C 810.938 1686.88 776.546 1685.08 766.296 1684.98 C 767.159 1665.25 766.268 1640.65 766.082 1620.58 z"/>
<path transform="translate(0,0)" fill="rgb(17,32,117)" d="M 860.528 1619.18 C 873.999 1617.83 891.245 1620.58 895.625 1636.3 C 896.431 1639.19 896.338 1638.59 894.925 1640.82 C 885.145 1642.34 885.792 1626.19 869.719 1625.54 C 862.983 1625.25 856.448 1627.88 851.778 1632.74 C 837.088 1647.95 843.308 1683.23 874.856 1679.38 C 879.051 1677.39 880.534 1677.09 883.621 1673.57 L 889.115 1667.27 C 892.186 1666.15 892.21 1665.79 895.284 1666.52 L 896.176 1668.09 C 894.854 1677.49 883.182 1686.02 873.944 1687.17 C 844.098 1690.87 828.624 1661.88 839.825 1636.37 C 844.13 1626.56 850.863 1622.61 860.528 1619.18 z"/>
<path transform="translate(0,0)" fill="rgb(17,32,117)" d="M 1305.82 1619.1 C 1313.74 1618.6 1320.03 1618.39 1327.51 1621.81 C 1332.97 1624.31 1343.17 1633.36 1339.68 1639.74 L 1337.24 1640.35 C 1329.15 1638.05 1331.03 1633.54 1326.5 1630.63 C 1285.72 1604.42 1269.25 1686.26 1319.52 1679.24 C 1329.58 1675.44 1332.78 1663.24 1341.71 1665.97 C 1342.02 1669 1341.9 1667.8 1340.67 1670.71 C 1335.72 1685.17 1309.41 1691.98 1297.17 1683.91 C 1271.77 1667.16 1274.79 1627.62 1305.82 1619.1 z"/>
<path transform="translate(0,0)" fill="rgb(17,32,117)" d="M 914.423 1620.16 C 929.673 1620.32 954.832 1619.23 968.504 1620.62 C 969.724 1623.29 969.335 1621.86 968.681 1625.3 C 963.883 1629.76 953.508 1627.75 945.969 1627.53 L 945.852 1662.75 C 945.848 1669.26 946.032 1676.75 945.506 1683.23 C 945.385 1684.71 944.894 1684.49 943.168 1685.61 C 939.499 1685.54 940.979 1686.16 938.386 1684.25 C 936.883 1672.18 937.849 1640.78 937.842 1627.46 C 930.053 1627.35 923.072 1629.03 915.95 1626.92 C 913.566 1624.24 914.354 1624.96 914.423 1620.16 z"/>
<path transform="translate(0,0)" fill="rgb(17,32,117)" d="M 697.949 1619.89 C 700.181 1619.89 701.819 1620.07 704.035 1620.27 C 706.482 1623.36 705.381 1670.36 705.608 1678.01 C 711.881 1677.93 738.398 1677.02 742.486 1678.87 L 743.219 1685 L 697.806 1685.19 L 697.949 1619.89 z"/>
<path transform="translate(0,0)" fill="rgb(17,32,117)" d="M 1245.82 1620.01 C 1248.74 1620 1251.27 1619.53 1253.41 1621.24 C 1254.73 1631.93 1253.88 1672.44 1253.85 1685.34 C 1250.95 1685.47 1248.74 1685.99 1246.41 1684.46 C 1245.28 1675.86 1245.85 1630.87 1245.82 1620.01 z"/>
</svg>